<svg xmlns="http://www.w3.org/2000/svg" viewBox="0 0 1600 900" width="1600" height="900" role="img" aria-label="Sınıf ortamı temalı arka plan görseli">
  <defs>
    <linearGradient id="g2" x1="0" y1="0" x2="1" y2="1">
      <stop offset="0" stop-color="#0d3b66"/>
      <stop offset="0.5" stop-color="#1565c0"/>
      <stop offset="1" stop-color="#1e88a8"/>
    </linearGradient>
    <radialGradient id="glow2" cx="0.2" cy="0.25" r="0.7">
      <stop offset="0" stop-color="#ffffff" stop-opacity="0.16"/>
      <stop offset="1" stop-color="#ffffff" stop-opacity="0"/>
    </radialGradient>
  </defs>
  <rect width="1600" height="900" fill="url(#g2)"/>
  <rect width="1600" height="900" fill="url(#glow2)"/>
  <g fill="#ffffff" opacity="0.06">
    <circle cx="300" cy="220" r="200"/>
    <circle cx="1340" cy="700" r="220"/>
    <circle cx="1420" cy="180" r="110"/>
  </g>
  <!-- konuşma balonları (iletişim/sınıf) -->
  <g opacity="0.12" fill="#ffffff">
    <g transform="translate(980 280)">
      <rect x="0" y="0" width="220" height="140" rx="28"/>
      <path d="M40 140 L40 196 L96 140 Z"/>
    </g>
    <g transform="translate(420 520)" opacity="0.7">
      <rect x="0" y="0" width="170" height="108" rx="24"/>
      <path d="M120 108 L120 152 L78 108 Z"/>
    </g>
  </g>
  <g fill="#fde68a" opacity="0.16">
    <circle cx="1018" cy="330" r="12"/>
    <circle cx="1058" cy="330" r="12"/>
    <circle cx="1098" cy="330" r="12"/>
  </g>
  <!-- öğrenci silüetleri (basit) -->
  <g opacity="0.14" fill="#ffffff" transform="translate(560 560)">
    <g>
      <circle cx="0" cy="0" r="46"/>
      <path d="M-70 150 Q-70 60 0 60 Q70 60 70 150 Z"/>
    </g>
    <g transform="translate(180 20)" opacity="0.85">
      <circle cx="0" cy="0" r="40"/>
      <path d="M-60 130 Q-60 52 0 52 Q60 52 60 130 Z"/>
    </g>
    <g transform="translate(360 -10)" opacity="0.7">
      <circle cx="0" cy="0" r="44"/>
      <path d="M-66 140 Q-66 56 0 56 Q66 56 66 140 Z"/>
    </g>
  </g>
</svg>
