<svg xmlns="http://www.w3.org/2000/svg" viewBox="0 0 1600 900" width="1600" height="900" role="img" aria-label="Hedefe ulaşma temalı arka plan görseli">
  <defs>
    <linearGradient id="g3" x1="0" y1="0" x2="1" y2="1">
      <stop offset="0" stop-color="#11224a"/>
      <stop offset="0.5" stop-color="#1c4ea0"/>
      <stop offset="1" stop-color="#2563eb"/>
    </linearGradient>
    <radialGradient id="glow3" cx="0.7" cy="0.8" r="0.7">
      <stop offset="0" stop-color="#fde68a" stop-opacity="0.14"/>
      <stop offset="1" stop-color="#fde68a" stop-opacity="0"/>
    </radialGradient>
  </defs>
  <rect width="1600" height="900" fill="url(#g3)"/>
  <rect width="1600" height="900" fill="url(#glow3)"/>
  <g fill="#ffffff" opacity="0.06">
    <circle cx="1280" cy="240" r="200"/>
    <circle cx="220" cy="640" r="170"/>
    <circle cx="1460" cy="700" r="120"/>
  </g>
  <!-- yükselen yol / ok (büyüme) -->
  <g opacity="0.16" stroke="#fde68a" stroke-width="10" fill="none" stroke-linecap="round" stroke-linejoin="round">
    <polyline points="300,640 620,520 880,560 1240,300"/>
    <polyline points="1240,300 1150,300 1240,300 1240,390"/>
  </g>
  <!-- yıldız parıltıları -->
  <g fill="#fde68a" opacity="0.55">
    <path d="M1240 250 q4 -22 8 0 q22 4 0 8 q-22 4 -8 0 q-4 22 -8 0 q-22 -4 0 -8 q22 -4 8 0Z" transform="translate(0 0) scale(1.4)"/>
  </g>
  <g fill="#ffffff" opacity="0.5">
    <circle cx="520" cy="220" r="6"/>
    <circle cx="980" cy="180" r="5"/>
    <circle cx="1380" cy="500" r="7"/>
    <circle cx="700" cy="700" r="5"/>
  </g>
  <!-- mezuniyet kepi (hedef) -->
  <g opacity="0.12" fill="#ffffff" transform="translate(420 300) rotate(-8)">
    <path d="M0 36 L90 0 L180 36 L90 72 Z"/>
    <path d="M30 50 L30 96 Q90 120 150 96 L150 50 L90 76 Z"/>
  </g>
</svg>
